<?xml version="1.0" standalone="no"?>
<!DOCTYPE svg PUBLIC "-//W3C//DTD SVG 20010904//EN"
 "http://www.w3.org/TR/2001/REC-SVG-20010904/DTD/svg10.dtd">
<svg version="1.0" xmlns="http://www.w3.org/2000/svg"
 width="772.000000pt" height="772.000000pt" viewBox="0 0 772.000000 772.000000"
 preserveAspectRatio="xMidYMid meet">
<metadata>
Created by potrace 1.14, written by Peter Selinger 2001-2017
</metadata>
<g transform="translate(0.000000,772.000000) scale(0.100000,-0.100000)"
fill="#000000" stroke="none">
<path d="M1294 4396 c-12 -8 -45 -13 -87 -12 -49 1 -67 -2 -67 -12 0 -7 4 -11
9 -8 4 3 15 -2 24 -12 14 -15 16 -49 16 -216 0 -208 -4 -226 -45 -226 -10 0
-14 -3 -10 -7 8 -9 246 -11 246 -3 0 3 -10 10 -22 15 -22 9 -23 17 -26 124 -4
142 7 175 66 187 17 3 46 -42 38 -61 -3 -8 -1 -15 4 -15 6 0 6 -9 0 -25 -6
-17 -6 -25 1 -25 6 0 8 -4 4 -9 -3 -6 -6 -44 -7 -86 -1 -71 -3 -77 -27 -90
-14 -8 -21 -15 -16 -16 29 -4 231 -5 239 -1 5 3 -6 11 -23 18 l-31 13 0 117
c0 130 -13 175 -59 198 -34 18 -121 14 -152 -7 -13 -9 -27 -17 -31 -17 -5 0
-8 40 -8 89 0 50 -4 92 -8 95 -5 3 -17 -1 -28 -8z"/>
<path d="M824 4372 c-263 -3 -248 3 -253 -97 -2 -27 -4 -52 -6 -56 -2 -3 2 -6
10 -6 8 0 17 14 21 30 8 37 73 102 108 109 14 3 34 -1 43 -8 16 -11 18 -33 18
-212 0 -110 -3 -203 -7 -207 -5 -6 -28 -12 -51 -14 -5 -1 -6 -5 -3 -9 5 -9
272 -9 281 0 3 3 -10 9 -29 12 -19 4 -38 11 -41 17 -12 19 -6 391 7 406 8 10
24 13 50 10 45 -5 90 -49 109 -104 6 -19 15 -33 21 -31 12 4 12 6 2 76 -4 31
-8 61 -8 66 -2 18 -46 21 -272 18z"/>
<path d="M1805 4252 c-4 -4 -11 -8 -16 -8 -5 -1 -13 -2 -18 -3 -21 -3 -73 -56
-87 -90 -40 -94 -5 -188 87 -237 44 -24 229 -25 229 -2 0 4 5 8 10 8 20 0 52
37 40 45 -6 4 -21 -2 -33 -13 -104 -94 -216 -41 -213 102 l1 39 130 1 c108 2
129 4 127 16 -2 8 -5 23 -7 32 -6 31 -25 57 -59 83 -28 22 -47 27 -109 30 -41
2 -78 0 -82 -3z m128 -92 l2 -45 -60 -1 c-66 -2 -77 5 -65 47 5 16 6 29 3 29
-12 0 32 43 52 50 32 13 65 -27 68 -80z"/>
<path d="M5205 4200 c-3 -5 -12 -7 -19 -4 -10 4 -12 -3 -10 -23 2 -15 5 -40 6
-55 l1 -28 22 23 c12 12 33 30 46 40 13 9 17 17 10 17 -6 0 -10 4 -7 9 3 5 -1
12 -10 15 -11 4 -14 0 -12 -16 4 -25 -17 -36 -26 -13 -3 9 -2 13 4 10 6 -3 10
3 10 14 0 23 -5 27 -15 11z"/>
<path d="M5370 4192 c-61 -19 -46 -102 18 -102 30 0 60 15 50 25 -4 4 -13 3
-20 -1 -34 -22 -68 -7 -68 30 0 12 8 26 18 32 24 16 62 0 62 -26 0 -11 5 -20
10 -20 19 0 10 39 -12 52 -28 15 -38 17 -58 10z"/>
<path d="M5031 4153 c-12 -8 -21 -20 -21 -28 0 -19 55 -36 69 -22 8 8 11 6 11
-7 0 -9 -4 -15 -9 -11 -5 3 -12 1 -16 -4 -3 -6 -13 -8 -23 -5 -15 5 -15 4 1
-9 21 -17 45 -12 64 12 15 21 -10 51 -38 46 -10 -2 -19 1 -19 6 0 6 -5 7 -12
3 -7 -5 -8 -3 -3 5 4 8 17 10 31 7 13 -4 24 -2 24 3 0 16 -38 19 -59 4z"/>
<path d="M5543 4154 c3 -6 -2 -20 -11 -30 -26 -27 -34 -54 -18 -54 8 0 17 7
20 17 6 14 8 14 20 -3 8 -10 12 -23 9 -28 -3 -5 0 -6 8 -4 8 3 13 13 11 22 -2
9 4 19 13 22 8 3 15 13 15 21 0 12 -3 12 -16 -2 -21 -20 -39 -14 -39 13 0 11
-5 25 -9 29 -5 4 -6 3 -3 -3z"/>
<path d="M4887 4086 c-18 -14 -18 -15 0 -43 10 -15 23 -34 30 -40 12 -13 43
-7 43 8 0 4 -6 6 -14 3 -8 -3 -17 -1 -21 5 -3 6 -2 11 2 11 5 0 14 9 21 21 12
19 11 20 -16 16 -20 -3 -29 -1 -29 9 0 10 4 11 14 3 10 -9 13 -8 13 5 0 19
-19 20 -43 2z"/>
<path d="M5680 4051 c-14 -14 -29 -32 -34 -39 -9 -15 19 -46 37 -39 9 4 9 6 0
6 -7 1 -13 8 -13 16 0 18 40 20 41 3 1 -7 4 -2 8 12 4 14 13 24 19 23 18 -4
14 8 -10 28 -11 11 -21 19 -22 18 -1 -1 -12 -13 -26 -28z m40 -16 c-7 -9 -15
-13 -17 -11 -7 7 7 26 19 26 6 0 6 -6 -2 -15z"/>
<path d="M4970 4019 c0 -5 5 -7 10 -4 6 3 10 8 10 11 0 2 -4 4 -10 4 -5 0 -10
-5 -10 -11z"/>
<path d="M4777 3974 c-15 -14 -27 -26 -27 -28 0 -6 76 -56 86 -56 16 0 35 40
29 61 -4 11 -11 17 -16 13 -6 -4 -6 -10 0 -18 8 -9 6 -18 -3 -32 -12 -16 -17
-17 -28 -6 -11 11 -10 15 2 25 21 17 22 32 2 50 -16 15 -20 14 -45 -9z m24
-37 c-8 -8 -11 -8 -11 2 0 7 -4 9 -10 6 -5 -3 -10 -2 -10 4 0 5 8 14 18 20 13
7 18 6 20 -6 2 -8 -1 -20 -7 -26z"/>
<path d="M5849 3873 c-8 -8 -12 -26 -11 -38 4 -27 -15 -43 -24 -21 -6 16 -24
22 -24 9 1 -23 20 -35 43 -29 20 5 25 11 22 27 -2 12 2 28 10 36 13 13 16 13
21 -1 3 -8 3 -19 0 -24 -3 -6 0 -15 7 -20 10 -9 13 -5 11 16 -2 40 -2 40 -23
51 -14 8 -22 7 -32 -6z"/>
<path d="M5795 3850 c-3 -5 -1 -10 4 -10 6 0 11 5 11 10 0 6 -2 10 -4 10 -3 0
-8 -4 -11 -10z"/>
<path d="M3645 3833 c-39 -8 -63 -26 -68 -52 -8 -38 26 -71 72 -71 43 0 56 8
65 37 7 22 -2 78 -12 68 -3 -3 -12 1 -21 8 -9 8 -25 12 -36 10z"/>
<path d="M684 3787 c-75 -30 -109 -85 -94 -152 11 -48 55 -87 155 -134 77 -36
125 -77 125 -107 0 -7 -11 -25 -25 -40 -23 -25 -29 -26 -80 -21 -68 7 -120 45
-155 112 -14 28 -26 41 -31 34 -9 -16 -9 -148 1 -154 4 -2 15 2 25 9 16 11 28
11 79 -4 74 -21 173 -19 224 4 67 31 101 111 71 169 -20 37 -48 58 -140 103
-100 50 -129 76 -129 116 0 21 8 33 31 47 28 17 36 18 75 6 24 -7 44 -11 44
-8 0 2 12 -10 27 -29 16 -18 34 -39 40 -46 7 -7 16 -25 19 -38 12 -46 29 -19
29 47 1 87 -3 103 -23 87 -18 -15 -60 -18 -84 -6 -30 15 -151 18 -184 5z"/>
<path d="M2422 3780 c-91 -41 -134 -114 -134 -227 0 -62 4 -80 29 -125 62
-110 217 -147 346 -84 48 24 59 34 65 60 3 17 5 34 4 39 -1 4 2 7 8 7 5 0 7 7
3 15 -6 16 -27 15 -29 -1 -4 -44 -79 -119 -132 -131 -97 -23 -154 73 -148 246
5 118 42 194 99 203 55 9 128 -44 163 -119 9 -18 20 -33 25 -33 5 0 9 36 9 80
0 73 -2 80 -20 80 -11 0 -20 -4 -20 -10 0 -13 -36 -13 -62 1 -38 20 -160 20
-206 -1z"/>
<path d="M1154 3737 c-21 -25 -49 -48 -61 -51 -13 -4 -23 -11 -23 -16 0 -4
-11 -11 -25 -14 -14 -4 -25 -12 -25 -18 0 -6 3 -8 6 -5 4 3 15 2 25 -4 17 -8
19 -22 19 -106 0 -160 35 -205 165 -208 50 -2 95 11 95 27 0 11 -17 10 -39 -3
-26 -17 -68 -4 -75 24 -3 14 -5 84 -5 156 1 129 2 132 23 130 42 -3 76 1 76 9
0 5 -21 9 -47 8 l-48 -1 -1 48 c-2 70 -14 75 -60 24z"/>
<path d="M3353 3760 c-32 -39 -78 -80 -89 -80 -6 0 -17 -7 -24 -15 -7 -8 -16
-13 -20 -10 -4 3 -14 -3 -21 -12 -12 -15 -12 -16 3 -10 35 13 48 -18 48 -117
0 -150 34 -196 149 -201 65 -2 118 12 102 28 -6 6 -15 7 -23 1 -27 -20 -66
-16 -79 7 -11 22 -20 258 -11 287 3 7 23 12 53 12 27 0 49 4 49 9 0 6 -22 9
-50 7 -30 -1 -51 2 -51 8 -1 6 -2 30 -3 53 -1 52 -10 61 -33 33z"/>
<path d="M5927 3731 c-3 -13 -19 -23 -48 -30 l-44 -10 53 3 c37 2 52 -1 52
-10 0 -7 4 -15 9 -19 6 -3 8 4 5 15 -2 11 -6 30 -9 41 -6 30 -12 33 -18 10z"/>
<path d="M1508 3684 c-2 -1 -19 -5 -38 -8 -50 -7 -94 -58 -86 -99 8 -41 19
-50 57 -50 21 0 38 7 50 22 17 21 17 25 4 44 -30 43 -8 83 39 71 28 -7 46 -49
42 -97 -2 -34 -15 -43 -75 -51 -130 -18 -191 -118 -110 -179 29 -21 106 -30
127 -14 6 5 12 6 12 3 0 -4 10 2 22 14 21 20 54 28 44 11 -3 -5 8 -15 25 -24
41 -19 126 -15 148 8 9 10 10 15 3 11 -7 -4 -23 -1 -36 7 -21 14 -23 23 -24
104 -1 48 -3 95 -5 103 -17 64 -54 101 -117 116 -37 8 -78 13 -82 8z m62 -217
c0 -49 -19 -106 -38 -116 -30 -16 -46 3 -46 55 1 40 6 52 33 76 37 33 51 29
51 -15z"/>
<path d="M2846 3662 c-37 -23 -45 -34 -50 -69 -4 -24 14 -63 30 -63 7 0 19 -3
28 -6 9 -3 26 5 41 20 23 23 24 29 13 48 -19 37 -19 57 1 68 25 13 33 13 55
-3 34 -25 33 -138 -1 -132 -10 1 -22 0 -28 -3 -5 -3 -20 -7 -33 -8 -29 -3 -91
-32 -109 -50 -22 -22 -31 -57 -21 -86 23 -66 143 -85 199 -32 16 15 29 22 29
16 0 -7 14 -21 31 -31 29 -18 78 -20 134 -7 11 2 22 5 25 6 3 0 -3 5 -13 11
-9 5 -21 8 -26 4 -18 -11 -25 21 -27 117 -2 99 -15 152 -44 176 -58 50 -175
62 -234 24z m138 -203 c-5 -60 -25 -108 -47 -115 -25 -8 -37 11 -37 59 0 48
13 73 48 91 36 19 40 14 36 -35z"/>
<path d="M3978 3685 c-2 -2 -15 -5 -28 -7 -44 -6 -98 -47 -119 -91 -47 -97
-17 -203 72 -248 20 -11 37 -17 37 -13 0 4 6 2 13 -3 21 -17 119 -8 163 15 59
30 89 82 91 157 3 115 -57 177 -184 189 -23 2 -43 2 -45 1z m75 -47 c15 -20
20 -45 23 -115 5 -133 -17 -192 -71 -193 -13 0 -27 13 -40 37 -28 51 -28 223
-1 268 23 40 61 41 89 3z"/>
<path d="M4521 3678 c-18 -5 -44 -16 -56 -24 -21 -13 -23 -13 -28 6 -5 20 -26
23 -39 6 -3 -5 -33 -11 -65 -12 -93 -3 -95 -3 -88 -14 4 -6 10 -8 15 -5 5 3
16 -2 24 -11 13 -12 16 -39 16 -130 0 -123 -8 -154 -41 -154 -11 0 -18 -4 -15
-8 2 -4 60 -8 128 -9 109 -1 121 0 104 13 -11 8 -23 14 -26 14 -9 0 -11 20
-11 143 -1 100 1 111 22 133 24 26 63 32 76 12 4 -7 9 -75 9 -150 1 -126 0
-138 -17 -143 -45 -15 -11 -22 101 -22 66 0 120 2 120 4 0 2 -13 9 -29 14
l-29 10 -4 133 c-2 110 -6 135 -20 150 -10 10 -18 21 -18 26 0 8 -23 15 -75
24 -11 2 -35 -1 -54 -6z"/>
<path d="M4928 3680 c-87 -15 -148 -83 -149 -169 -2 -61 7 -90 40 -124 42 -46
98 -69 171 -72 36 -1 70 0 75 4 6 3 12 6 15 6 46 6 100 52 78 66 -8 5 -16 2
-21 -7 -12 -22 -86 -54 -124 -54 -59 0 -99 57 -98 140 l0 45 123 0 c137 0 146
5 121 68 -32 79 -118 115 -231 97z m78 -19 c25 -2 54 -120 30 -122 -16 -1 -99
-1 -113 0 -11 1 -10 29 4 76 8 30 32 53 51 50 9 -2 22 -4 28 -4z"/>
<path d="M5463 3674 c-17 -7 -39 -24 -47 -36 -13 -19 -16 -20 -17 -5 -4 46
-10 52 -40 36 -13 -6 -48 -13 -78 -14 -31 -2 -62 -4 -68 -4 -22 -2 -14 -17 8
-18 12 -1 24 -5 28 -8 10 -10 9 -248 -1 -267 -5 -10 -18 -18 -28 -18 -11 0
-20 -4 -20 -8 0 -4 59 -8 130 -8 72 -1 130 1 130 3 0 2 -13 9 -30 14 -26 9
-30 16 -31 47 -5 150 16 234 66 264 44 25 63 11 41 -32 -21 -42 -20 -60 2 -76
41 -31 90 -8 97 46 4 30 0 39 -27 63 -17 15 -36 27 -42 28 -6 0 -18 2 -26 3
-8 2 -29 -3 -47 -10z"/>
<path d="M1803 3672 c-30 -4 -30 -22 0 -22 30 0 45 -17 97 -115 23 -44 58
-109 78 -145 41 -77 39 -110 -9 -139 -32 -19 -79 -15 -103 9 -17 17 -46 11
-55 -12 -24 -67 52 -104 138 -68 25 10 81 88 81 112 0 9 49 110 133 271 32 62
55 87 81 87 15 0 17 3 9 11 -10 10 -43 13 -105 10 -21 -1 -24 -21 -4 -21 27 0
25 -16 -16 -101 l-40 -84 -17 24 c-9 14 -28 53 -43 87 l-27 63 22 15 22 15
-25 1 c-67 4 -198 5 -217 2z"/>
<path d="M3677 3669 c-10 -6 -47 -11 -82 -13 -73 -2 -91 -11 -46 -21 19 -4 31
-13 32 -23 1 -26 1 -173 0 -215 -1 -33 -5 -40 -33 -52 -18 -8 -31 -15 -28 -16
19 -6 262 -4 266 3 5 7 -18 13 -39 9 -18 -3 -26 56 -24 188 2 109 -1 142 -11
146 -16 6 -13 7 -35 -6z"/>
<path d="M5860 3591 c0 -5 4 -12 9 -15 13 -8 7 -36 -9 -46 -8 -5 -12 -11 -9
-14 8 -8 82 14 98 30 13 11 12 14 -5 20 -16 5 -50 19 -76 32 -5 2 -8 -1 -8 -7z
m69 -34 c-2 -1 -12 -9 -21 -16 -15 -12 -18 -11 -18 3 0 10 8 16 22 16 12 0 19
-1 17 -3z"/>
<path d="M5820 3418 c0 -5 5 -8 12 -8 7 0 27 -14 45 -32 18 -18 33 -27 33 -20
0 7 -4 12 -10 12 -23 0 -9 39 18 48 22 8 16 9 -35 8 -35 0 -63 -4 -63 -8z"/>
<path d="M5753 3303 c-14 -22 -14 -26 -1 -39 14 -14 19 -14 52 0 32 13 36 13
36 0 0 -8 -4 -13 -9 -10 -5 3 -11 -1 -15 -9 -3 -9 0 -15 10 -15 16 0 38 46 28
62 -3 5 -17 7 -29 4 -14 -3 -27 -1 -31 6 -4 7 -3 8 4 4 7 -4 10 -2 6 7 -8 21
-34 16 -51 -10z"/>
</g>
</svg>
